<mxfile host="Electron" agent="Mozilla/5.0 (Windows NT 10.0; Win64; x64) AppleWebKit/537.36 (KHTML, like Gecko) draw.io/25.0.2 Chrome/128.0.6613.186 Electron/32.2.5 Safari/537.36" version="25.0.2">
  <diagram name="Página-1" id="QHQxJ87xTsVEBX5Fe019">
    <mxGraphModel dx="1154" dy="1779" grid="1" gridSize="10" guides="1" tooltips="1" connect="1" arrows="1" fold="1" page="1" pageScale="1" pageWidth="827" pageHeight="1169" math="0" shadow="0">
      <root>
        <mxCell id="0" />
        <mxCell id="1" parent="0" />
        <mxCell id="CKRywCwi0RtDSJi-CvzO-1" value="instructor" style="rounded=0;whiteSpace=wrap;html=1;" parent="1" vertex="1">
          <mxGeometry x="110" y="170" width="120" height="60" as="geometry" />
        </mxCell>
        <mxCell id="CKRywCwi0RtDSJi-CvzO-4" value="password" style="ellipse;whiteSpace=wrap;html=1;" parent="1" vertex="1">
          <mxGeometry x="30" y="210" width="60" height="20" as="geometry" />
        </mxCell>
        <mxCell id="CKRywCwi0RtDSJi-CvzO-7" value="" style="endArrow=none;html=1;rounded=0;exitX=1;exitY=0.5;exitDx=0;exitDy=0;entryX=-0.002;entryY=0.834;entryDx=0;entryDy=0;entryPerimeter=0;" parent="1" source="CKRywCwi0RtDSJi-CvzO-4" target="CKRywCwi0RtDSJi-CvzO-1" edge="1">
          <mxGeometry width="50" height="50" relative="1" as="geometry">
            <mxPoint x="100" y="260" as="sourcePoint" />
            <mxPoint x="150" y="210" as="targetPoint" />
          </mxGeometry>
        </mxCell>
        <mxCell id="CKRywCwi0RtDSJi-CvzO-8" value="&lt;u&gt;id&lt;/u&gt;" style="ellipse;whiteSpace=wrap;html=1;" parent="1" vertex="1">
          <mxGeometry x="30" y="190" width="60" height="20" as="geometry" />
        </mxCell>
        <mxCell id="CKRywCwi0RtDSJi-CvzO-9" value="" style="endArrow=none;html=1;rounded=0;exitX=1;exitY=0.5;exitDx=0;exitDy=0;entryX=-0.002;entryY=0.834;entryDx=0;entryDy=0;entryPerimeter=0;" parent="1" source="CKRywCwi0RtDSJi-CvzO-8" edge="1">
          <mxGeometry width="50" height="50" relative="1" as="geometry">
            <mxPoint x="100" y="240" as="sourcePoint" />
            <mxPoint x="110" y="200" as="targetPoint" />
          </mxGeometry>
        </mxCell>
        <mxCell id="CKRywCwi0RtDSJi-CvzO-10" value="nombre" style="ellipse;whiteSpace=wrap;html=1;" parent="1" vertex="1">
          <mxGeometry x="320" y="-10" width="60" height="20" as="geometry" />
        </mxCell>
        <mxCell id="CKRywCwi0RtDSJi-CvzO-11" value="" style="endArrow=none;html=1;rounded=0;exitX=1;exitY=0.5;exitDx=0;exitDy=0;entryX=0;entryY=0.5;entryDx=0;entryDy=0;" parent="1" source="CKRywCwi0RtDSJi-CvzO-10" target="CKRywCwi0RtDSJi-CvzO-46" edge="1">
          <mxGeometry width="50" height="50" relative="1" as="geometry">
            <mxPoint x="380" y="39.93000000000001" as="sourcePoint" />
            <mxPoint x="400" y="39.93000000000001" as="targetPoint" />
          </mxGeometry>
        </mxCell>
        <mxCell id="CKRywCwi0RtDSJi-CvzO-12" value="email" style="ellipse;whiteSpace=wrap;html=1;rotation=90;" parent="1" vertex="1">
          <mxGeometry x="90" y="110" width="60" height="20" as="geometry" />
        </mxCell>
        <mxCell id="CKRywCwi0RtDSJi-CvzO-14" value="telefono" style="ellipse;whiteSpace=wrap;html=1;rotation=90;" parent="1" vertex="1">
          <mxGeometry x="110" y="110" width="60" height="20" as="geometry" />
        </mxCell>
        <mxCell id="CKRywCwi0RtDSJi-CvzO-18" value="" style="endArrow=none;html=1;rounded=0;entryX=1;entryY=0.5;entryDx=0;entryDy=0;exitX=0.083;exitY=0.001;exitDx=0;exitDy=0;exitPerimeter=0;" parent="1" source="CKRywCwi0RtDSJi-CvzO-1" target="CKRywCwi0RtDSJi-CvzO-12" edge="1">
          <mxGeometry width="50" height="50" relative="1" as="geometry">
            <mxPoint x="120" y="190" as="sourcePoint" />
            <mxPoint x="170" y="140" as="targetPoint" />
          </mxGeometry>
        </mxCell>
        <mxCell id="CKRywCwi0RtDSJi-CvzO-19" value="" style="endArrow=none;html=1;rounded=0;entryX=1;entryY=0.5;entryDx=0;entryDy=0;exitX=0.083;exitY=0.001;exitDx=0;exitDy=0;exitPerimeter=0;" parent="1" edge="1">
          <mxGeometry width="50" height="50" relative="1" as="geometry">
            <mxPoint x="139.97" y="170" as="sourcePoint" />
            <mxPoint x="139.97" y="150" as="targetPoint" />
          </mxGeometry>
        </mxCell>
        <mxCell id="CKRywCwi0RtDSJi-CvzO-21" value="especialidad" style="rounded=0;whiteSpace=wrap;html=1;" parent="1" vertex="1">
          <mxGeometry x="110" y="310" width="120" height="60" as="geometry" />
        </mxCell>
        <mxCell id="CKRywCwi0RtDSJi-CvzO-24" value="&lt;u&gt;id&lt;/u&gt;" style="ellipse;whiteSpace=wrap;html=1;" parent="1" vertex="1">
          <mxGeometry x="30" y="310" width="60" height="20" as="geometry" />
        </mxCell>
        <mxCell id="CKRywCwi0RtDSJi-CvzO-25" value="" style="endArrow=none;html=1;rounded=0;exitX=1;exitY=0.5;exitDx=0;exitDy=0;entryX=-0.002;entryY=0.834;entryDx=0;entryDy=0;entryPerimeter=0;" parent="1" source="CKRywCwi0RtDSJi-CvzO-24" edge="1">
          <mxGeometry width="50" height="50" relative="1" as="geometry">
            <mxPoint x="100" y="360" as="sourcePoint" />
            <mxPoint x="110" y="320" as="targetPoint" />
          </mxGeometry>
        </mxCell>
        <mxCell id="CKRywCwi0RtDSJi-CvzO-26" value="nombre" style="ellipse;whiteSpace=wrap;html=1;" parent="1" vertex="1">
          <mxGeometry x="30" y="330" width="60" height="20" as="geometry" />
        </mxCell>
        <mxCell id="CKRywCwi0RtDSJi-CvzO-27" value="" style="endArrow=none;html=1;rounded=0;exitX=1;exitY=0.5;exitDx=0;exitDy=0;entryX=-0.002;entryY=0.834;entryDx=0;entryDy=0;entryPerimeter=0;" parent="1" edge="1">
          <mxGeometry width="50" height="50" relative="1" as="geometry">
            <mxPoint x="90" y="339.93" as="sourcePoint" />
            <mxPoint x="110" y="339.93" as="targetPoint" />
          </mxGeometry>
        </mxCell>
        <mxCell id="CKRywCwi0RtDSJi-CvzO-28" value="descripción" style="ellipse;whiteSpace=wrap;html=1;" parent="1" vertex="1">
          <mxGeometry x="20" y="350" width="70" height="20" as="geometry" />
        </mxCell>
        <mxCell id="CKRywCwi0RtDSJi-CvzO-29" value="" style="endArrow=none;html=1;rounded=0;exitX=1;exitY=0.5;exitDx=0;exitDy=0;entryX=-0.002;entryY=0.834;entryDx=0;entryDy=0;entryPerimeter=0;" parent="1" edge="1">
          <mxGeometry width="50" height="50" relative="1" as="geometry">
            <mxPoint x="90" y="359.93" as="sourcePoint" />
            <mxPoint x="110" y="359.93" as="targetPoint" />
          </mxGeometry>
        </mxCell>
        <mxCell id="CKRywCwi0RtDSJi-CvzO-30" value="" style="endArrow=none;html=1;rounded=0;exitX=1;exitY=0.5;exitDx=0;exitDy=0;" parent="1" source="CKRywCwi0RtDSJi-CvzO-1" target="CKRywCwi0RtDSJi-CvzO-31" edge="1">
          <mxGeometry width="50" height="50" relative="1" as="geometry">
            <mxPoint x="270" y="220" as="sourcePoint" />
            <mxPoint x="270" y="200" as="targetPoint" />
          </mxGeometry>
        </mxCell>
        <mxCell id="CKRywCwi0RtDSJi-CvzO-44" value="1" style="edgeLabel;html=1;align=center;verticalAlign=middle;resizable=0;points=[];" parent="CKRywCwi0RtDSJi-CvzO-30" vertex="1" connectable="0">
          <mxGeometry x="-0.6111" relative="1" as="geometry">
            <mxPoint as="offset" />
          </mxGeometry>
        </mxCell>
        <mxCell id="CKRywCwi0RtDSJi-CvzO-31" value="desarrolla" style="rhombus;whiteSpace=wrap;html=1;" parent="1" vertex="1">
          <mxGeometry x="280" y="168.75" width="70" height="62.5" as="geometry" />
        </mxCell>
        <mxCell id="CKRywCwi0RtDSJi-CvzO-32" value="" style="endArrow=none;html=1;rounded=0;exitX=1;exitY=0.5;exitDx=0;exitDy=0;" parent="1" edge="1">
          <mxGeometry width="50" height="50" relative="1" as="geometry">
            <mxPoint x="350" y="199.8" as="sourcePoint" />
            <mxPoint x="400" y="199.8" as="targetPoint" />
          </mxGeometry>
        </mxCell>
        <mxCell id="CKRywCwi0RtDSJi-CvzO-45" value="N" style="edgeLabel;html=1;align=center;verticalAlign=middle;resizable=0;points=[];" parent="CKRywCwi0RtDSJi-CvzO-32" vertex="1" connectable="0">
          <mxGeometry x="0.7222" relative="1" as="geometry">
            <mxPoint as="offset" />
          </mxGeometry>
        </mxCell>
        <mxCell id="CKRywCwi0RtDSJi-CvzO-33" value="guia" style="rounded=0;whiteSpace=wrap;html=1;" parent="1" vertex="1">
          <mxGeometry x="400" y="171.25" width="120" height="60" as="geometry" />
        </mxCell>
        <mxCell id="CKRywCwi0RtDSJi-CvzO-34" value="nombre" style="ellipse;whiteSpace=wrap;html=1;rotation=90;" parent="1" vertex="1">
          <mxGeometry x="380" y="110" width="60" height="20" as="geometry" />
        </mxCell>
        <mxCell id="CKRywCwi0RtDSJi-CvzO-37" value="" style="endArrow=none;html=1;rounded=0;entryX=1;entryY=0.5;entryDx=0;entryDy=0;exitX=0.083;exitY=-0.001;exitDx=0;exitDy=0;exitPerimeter=0;" parent="1" source="CKRywCwi0RtDSJi-CvzO-33" target="CKRywCwi0RtDSJi-CvzO-34" edge="1">
          <mxGeometry width="50" height="50" relative="1" as="geometry">
            <mxPoint x="410" y="170" as="sourcePoint" />
            <mxPoint x="450" y="130" as="targetPoint" />
          </mxGeometry>
        </mxCell>
        <mxCell id="CKRywCwi0RtDSJi-CvzO-38" value="&lt;u&gt;id&lt;/u&gt;" style="ellipse;whiteSpace=wrap;html=1;rotation=90;" parent="1" vertex="1">
          <mxGeometry x="360" y="110" width="60" height="20" as="geometry" />
        </mxCell>
        <mxCell id="CKRywCwi0RtDSJi-CvzO-42" value="presentacion" style="ellipse;whiteSpace=wrap;html=1;rotation=90;" parent="1" vertex="1">
          <mxGeometry x="370" y="290" width="80" height="20" as="geometry" />
        </mxCell>
        <mxCell id="CKRywCwi0RtDSJi-CvzO-43" value="" style="endArrow=none;html=1;rounded=0;exitX=0.006;exitY=0.5;exitDx=0;exitDy=0;exitPerimeter=0;" parent="1" source="CKRywCwi0RtDSJi-CvzO-42" edge="1">
          <mxGeometry width="50" height="50" relative="1" as="geometry">
            <mxPoint x="409.92" y="243.5" as="sourcePoint" />
            <mxPoint x="410.09" y="231.25" as="targetPoint" />
          </mxGeometry>
        </mxCell>
        <mxCell id="CKRywCwi0RtDSJi-CvzO-46" value="programaFormacion" style="rounded=0;whiteSpace=wrap;html=1;" parent="1" vertex="1">
          <mxGeometry x="400" y="-30" width="120" height="60" as="geometry" />
        </mxCell>
        <mxCell id="CKRywCwi0RtDSJi-CvzO-50" value="" style="endArrow=none;html=1;rounded=0;exitX=0.492;exitY=0.041;exitDx=0;exitDy=0;exitPerimeter=0;entryX=0.5;entryY=1;entryDx=0;entryDy=0;" parent="1" source="CKRywCwi0RtDSJi-CvzO-47" target="CKRywCwi0RtDSJi-CvzO-46" edge="1">
          <mxGeometry width="50" height="50" relative="1" as="geometry">
            <mxPoint x="460" y="99.99999999999999" as="sourcePoint" />
            <mxPoint x="460" y="70" as="targetPoint" />
          </mxGeometry>
        </mxCell>
        <mxCell id="CKRywCwi0RtDSJi-CvzO-54" value="1" style="edgeLabel;html=1;align=center;verticalAlign=middle;resizable=0;points=[];" parent="CKRywCwi0RtDSJi-CvzO-50" vertex="1" connectable="0">
          <mxGeometry x="0.2777" y="1" relative="1" as="geometry">
            <mxPoint as="offset" />
          </mxGeometry>
        </mxCell>
        <mxCell id="CKRywCwi0RtDSJi-CvzO-51" value="" style="endArrow=none;html=1;rounded=0;entryX=0.5;entryY=1;entryDx=0;entryDy=0;exitX=0.492;exitY=0.041;exitDx=0;exitDy=0;exitPerimeter=0;" parent="1" target="CKRywCwi0RtDSJi-CvzO-47" edge="1">
          <mxGeometry width="50" height="50" relative="1" as="geometry">
            <mxPoint x="459.77" y="171.25" as="sourcePoint" />
            <mxPoint x="459.77" y="139.25" as="targetPoint" />
          </mxGeometry>
        </mxCell>
        <mxCell id="CKRywCwi0RtDSJi-CvzO-53" value="N" style="edgeLabel;html=1;align=center;verticalAlign=middle;resizable=0;points=[];" parent="CKRywCwi0RtDSJi-CvzO-51" vertex="1" connectable="0">
          <mxGeometry x="-0.2884" relative="1" as="geometry">
            <mxPoint as="offset" />
          </mxGeometry>
        </mxCell>
        <mxCell id="CKRywCwi0RtDSJi-CvzO-55" value="&lt;u&gt;id&lt;/u&gt;" style="ellipse;whiteSpace=wrap;html=1;" parent="1" vertex="1">
          <mxGeometry x="320" y="-30" width="60" height="20" as="geometry" />
        </mxCell>
        <mxCell id="CKRywCwi0RtDSJi-CvzO-56" value="" style="endArrow=none;html=1;rounded=0;exitX=1;exitY=0.5;exitDx=0;exitDy=0;entryX=-0.008;entryY=0.15;entryDx=0;entryDy=0;entryPerimeter=0;" parent="1" source="CKRywCwi0RtDSJi-CvzO-55" target="CKRywCwi0RtDSJi-CvzO-46" edge="1">
          <mxGeometry width="50" height="50" relative="1" as="geometry">
            <mxPoint x="390" y="60" as="sourcePoint" />
            <mxPoint x="400" y="20" as="targetPoint" />
          </mxGeometry>
        </mxCell>
        <mxCell id="CKRywCwi0RtDSJi-CvzO-57" value="codigo programa formacion" style="ellipse;whiteSpace=wrap;html=1;fontStyle=0" parent="1" vertex="1">
          <mxGeometry x="200" y="8.75" width="180" height="20" as="geometry" />
        </mxCell>
        <mxCell id="CKRywCwi0RtDSJi-CvzO-58" value="" style="endArrow=none;html=1;rounded=0;exitX=1;exitY=0.5;exitDx=0;exitDy=0;entryX=-0.001;entryY=0.839;entryDx=0;entryDy=0;entryPerimeter=0;" parent="1" source="CKRywCwi0RtDSJi-CvzO-57" target="CKRywCwi0RtDSJi-CvzO-46" edge="1">
          <mxGeometry width="50" height="50" relative="1" as="geometry">
            <mxPoint x="390" y="100" as="sourcePoint" />
            <mxPoint x="400" y="60" as="targetPoint" />
          </mxGeometry>
        </mxCell>
        <mxCell id="CKRywCwi0RtDSJi-CvzO-59" value="nombre" style="ellipse;whiteSpace=wrap;html=1;" parent="1" vertex="1">
          <mxGeometry x="30" y="168.75" width="60" height="20" as="geometry" />
        </mxCell>
        <mxCell id="CKRywCwi0RtDSJi-CvzO-60" value="" style="endArrow=none;html=1;rounded=0;exitX=1;exitY=0.5;exitDx=0;exitDy=0;entryX=-0.002;entryY=0.834;entryDx=0;entryDy=0;entryPerimeter=0;" parent="1" edge="1">
          <mxGeometry width="50" height="50" relative="1" as="geometry">
            <mxPoint x="90" y="178.68" as="sourcePoint" />
            <mxPoint x="110" y="178.68" as="targetPoint" />
          </mxGeometry>
        </mxCell>
        <mxCell id="CKRywCwi0RtDSJi-CvzO-65" value="contiene" style="rhombus;whiteSpace=wrap;html=1;" parent="1" vertex="1">
          <mxGeometry x="560" y="8.75" width="70" height="62.5" as="geometry" />
        </mxCell>
        <mxCell id="CKRywCwi0RtDSJi-CvzO-66" value="" style="endArrow=none;html=1;rounded=0;exitX=1;exitY=0.5;exitDx=0;exitDy=0;entryX=0;entryY=0.5;entryDx=0;entryDy=0;" parent="1" source="CKRywCwi0RtDSJi-CvzO-46" target="CKRywCwi0RtDSJi-CvzO-65" edge="1">
          <mxGeometry width="50" height="50" relative="1" as="geometry">
            <mxPoint x="610" y="50" as="sourcePoint" />
            <mxPoint x="660" as="targetPoint" />
          </mxGeometry>
        </mxCell>
        <mxCell id="CKRywCwi0RtDSJi-CvzO-67" value="1" style="edgeLabel;html=1;align=center;verticalAlign=middle;resizable=0;points=[];" parent="CKRywCwi0RtDSJi-CvzO-66" vertex="1" connectable="0">
          <mxGeometry x="-0.5" y="1" relative="1" as="geometry">
            <mxPoint as="offset" />
          </mxGeometry>
        </mxCell>
        <mxCell id="CKRywCwi0RtDSJi-CvzO-68" value="" style="endArrow=none;html=1;rounded=0;exitX=1;exitY=0.5;exitDx=0;exitDy=0;entryX=0;entryY=0.5;entryDx=0;entryDy=0;" parent="1" edge="1">
          <mxGeometry width="50" height="50" relative="1" as="geometry">
            <mxPoint x="630" y="39.8" as="sourcePoint" />
            <mxPoint x="670" y="39.8" as="targetPoint" />
          </mxGeometry>
        </mxCell>
        <mxCell id="CKRywCwi0RtDSJi-CvzO-71" value="N" style="edgeLabel;html=1;align=center;verticalAlign=middle;resizable=0;points=[];" parent="CKRywCwi0RtDSJi-CvzO-68" vertex="1" connectable="0">
          <mxGeometry x="0.4782" y="1" relative="1" as="geometry">
            <mxPoint as="offset" />
          </mxGeometry>
        </mxCell>
        <mxCell id="CKRywCwi0RtDSJi-CvzO-72" value="competencia" style="rounded=0;whiteSpace=wrap;html=1;" parent="1" vertex="1">
          <mxGeometry x="670" y="8.75" width="120" height="60" as="geometry" />
        </mxCell>
        <mxCell id="CKRywCwi0RtDSJi-CvzO-74" value="&lt;u&gt;id&lt;/u&gt;" style="ellipse;whiteSpace=wrap;html=1;rotation=90;" parent="1" vertex="1">
          <mxGeometry x="650" y="-50" width="60" height="20" as="geometry" />
        </mxCell>
        <mxCell id="CKRywCwi0RtDSJi-CvzO-75" value="" style="endArrow=none;html=1;rounded=0;exitX=0.083;exitY=-0.001;exitDx=0;exitDy=0;exitPerimeter=0;" parent="1" edge="1">
          <mxGeometry width="50" height="50" relative="1" as="geometry">
            <mxPoint x="679.8599999999999" y="8.75" as="sourcePoint" />
            <mxPoint x="680" y="-10" as="targetPoint" />
          </mxGeometry>
        </mxCell>
        <mxCell id="CKRywCwi0RtDSJi-CvzO-76" value="resultado" style="rounded=0;whiteSpace=wrap;html=1;" parent="1" vertex="1">
          <mxGeometry x="670" y="171.25" width="120" height="60" as="geometry" />
        </mxCell>
        <mxCell id="CKRywCwi0RtDSJi-CvzO-77" value="incluye" style="rhombus;whiteSpace=wrap;html=1;" parent="1" vertex="1">
          <mxGeometry x="705" y="100" width="50" height="40" as="geometry" />
        </mxCell>
        <mxCell id="CKRywCwi0RtDSJi-CvzO-78" value="" style="endArrow=none;html=1;rounded=0;exitX=0.498;exitY=0.025;exitDx=0;exitDy=0;exitPerimeter=0;" parent="1" source="CKRywCwi0RtDSJi-CvzO-77" edge="1">
          <mxGeometry width="50" height="50" relative="1" as="geometry">
            <mxPoint x="729.9" y="98.74999999999999" as="sourcePoint" />
            <mxPoint x="729.9" y="68.75" as="targetPoint" />
          </mxGeometry>
        </mxCell>
        <mxCell id="CKRywCwi0RtDSJi-CvzO-79" value="1" style="edgeLabel;html=1;align=center;verticalAlign=middle;resizable=0;points=[];" parent="CKRywCwi0RtDSJi-CvzO-78" vertex="1" connectable="0">
          <mxGeometry x="0.2777" y="1" relative="1" as="geometry">
            <mxPoint as="offset" />
          </mxGeometry>
        </mxCell>
        <mxCell id="CKRywCwi0RtDSJi-CvzO-80" value="" style="endArrow=none;html=1;rounded=0;entryX=0.5;entryY=1;entryDx=0;entryDy=0;exitX=0.5;exitY=0;exitDx=0;exitDy=0;" parent="1" source="CKRywCwi0RtDSJi-CvzO-76" edge="1">
          <mxGeometry width="50" height="50" relative="1" as="geometry">
            <mxPoint x="730" y="170" as="sourcePoint" />
            <mxPoint x="729.9" y="140" as="targetPoint" />
          </mxGeometry>
        </mxCell>
        <mxCell id="CKRywCwi0RtDSJi-CvzO-81" value="N" style="edgeLabel;html=1;align=center;verticalAlign=middle;resizable=0;points=[];" parent="CKRywCwi0RtDSJi-CvzO-80" vertex="1" connectable="0">
          <mxGeometry x="-0.2884" relative="1" as="geometry">
            <mxPoint as="offset" />
          </mxGeometry>
        </mxCell>
        <mxCell id="CKRywCwi0RtDSJi-CvzO-82" value="&lt;u&gt;id&lt;/u&gt;" style="ellipse;whiteSpace=wrap;html=1;rotation=90;" parent="1" vertex="1">
          <mxGeometry x="650" y="270" width="60" height="20" as="geometry" />
        </mxCell>
        <mxCell id="CKRywCwi0RtDSJi-CvzO-83" value="" style="endArrow=none;html=1;rounded=0;exitX=0.006;exitY=0.5;exitDx=0;exitDy=0;exitPerimeter=0;" parent="1" edge="1">
          <mxGeometry width="50" height="50" relative="1" as="geometry">
            <mxPoint x="679.8" y="250" as="sourcePoint" />
            <mxPoint x="679.89" y="231.25" as="targetPoint" />
          </mxGeometry>
        </mxCell>
        <mxCell id="CKRywCwi0RtDSJi-CvzO-84" value="implementa" style="rhombus;whiteSpace=wrap;html=1;" parent="1" vertex="1">
          <mxGeometry x="550" y="168.75" width="90" height="62.5" as="geometry" />
        </mxCell>
        <mxCell id="CKRywCwi0RtDSJi-CvzO-85" value="" style="endArrow=none;html=1;rounded=0;exitX=1;exitY=0.5;exitDx=0;exitDy=0;entryX=0;entryY=0.5;entryDx=0;entryDy=0;" parent="1" target="CKRywCwi0RtDSJi-CvzO-84" edge="1">
          <mxGeometry width="50" height="50" relative="1" as="geometry">
            <mxPoint x="520" y="200" as="sourcePoint" />
            <mxPoint x="660" y="160" as="targetPoint" />
          </mxGeometry>
        </mxCell>
        <mxCell id="CKRywCwi0RtDSJi-CvzO-86" value="N" style="edgeLabel;html=1;align=center;verticalAlign=middle;resizable=0;points=[];" parent="CKRywCwi0RtDSJi-CvzO-85" vertex="1" connectable="0">
          <mxGeometry x="-0.5" y="1" relative="1" as="geometry">
            <mxPoint as="offset" />
          </mxGeometry>
        </mxCell>
        <mxCell id="CKRywCwi0RtDSJi-CvzO-87" value="" style="endArrow=none;html=1;rounded=0;exitX=0.99;exitY=0.498;exitDx=0;exitDy=0;entryX=0;entryY=0.5;entryDx=0;entryDy=0;exitPerimeter=0;" parent="1" source="CKRywCwi0RtDSJi-CvzO-84" edge="1">
          <mxGeometry width="50" height="50" relative="1" as="geometry">
            <mxPoint x="630" y="199.8" as="sourcePoint" />
            <mxPoint x="670" y="199.8" as="targetPoint" />
          </mxGeometry>
        </mxCell>
        <mxCell id="CKRywCwi0RtDSJi-CvzO-88" value="N" style="edgeLabel;html=1;align=center;verticalAlign=middle;resizable=0;points=[];" parent="CKRywCwi0RtDSJi-CvzO-87" vertex="1" connectable="0">
          <mxGeometry x="0.4782" y="1" relative="1" as="geometry">
            <mxPoint as="offset" />
          </mxGeometry>
        </mxCell>
        <mxCell id="CKRywCwi0RtDSJi-CvzO-89" value="pertenece" style="rhombus;whiteSpace=wrap;html=1;" parent="1" vertex="1">
          <mxGeometry x="137.5" y="250" width="65" height="40" as="geometry" />
        </mxCell>
        <mxCell id="CKRywCwi0RtDSJi-CvzO-90" value="" style="endArrow=none;html=1;rounded=0;" parent="1" edge="1">
          <mxGeometry width="50" height="50" relative="1" as="geometry">
            <mxPoint x="170" y="250" as="sourcePoint" />
            <mxPoint x="170" y="230" as="targetPoint" />
          </mxGeometry>
        </mxCell>
        <mxCell id="CKRywCwi0RtDSJi-CvzO-91" value="N" style="edgeLabel;html=1;align=center;verticalAlign=middle;resizable=0;points=[];" parent="CKRywCwi0RtDSJi-CvzO-90" vertex="1" connectable="0">
          <mxGeometry x="0.2777" y="1" relative="1" as="geometry">
            <mxPoint as="offset" />
          </mxGeometry>
        </mxCell>
        <mxCell id="CKRywCwi0RtDSJi-CvzO-92" value="" style="endArrow=none;html=1;rounded=0;entryX=0.5;entryY=1;entryDx=0;entryDy=0;exitX=0.5;exitY=0;exitDx=0;exitDy=0;" parent="1" source="CKRywCwi0RtDSJi-CvzO-21" edge="1">
          <mxGeometry width="50" height="50" relative="1" as="geometry">
            <mxPoint x="160" y="300" as="sourcePoint" />
            <mxPoint x="169.99999999999997" y="290" as="targetPoint" />
          </mxGeometry>
        </mxCell>
        <mxCell id="CKRywCwi0RtDSJi-CvzO-93" value="1" style="edgeLabel;html=1;align=center;verticalAlign=middle;resizable=0;points=[];" parent="CKRywCwi0RtDSJi-CvzO-92" vertex="1" connectable="0">
          <mxGeometry x="-0.2884" relative="1" as="geometry">
            <mxPoint as="offset" />
          </mxGeometry>
        </mxCell>
        <mxCell id="CKRywCwi0RtDSJi-CvzO-99" value="momentosAprendizaje" style="rounded=0;whiteSpace=wrap;html=1;" parent="1" vertex="1">
          <mxGeometry x="390" y="560" width="120" height="60" as="geometry" />
        </mxCell>
        <mxCell id="CKRywCwi0RtDSJi-CvzO-100" value="&lt;u&gt;id&lt;/u&gt;" style="ellipse;whiteSpace=wrap;html=1;" parent="1" vertex="1">
          <mxGeometry x="260" y="550" width="60" height="20" as="geometry" />
        </mxCell>
        <mxCell id="CKRywCwi0RtDSJi-CvzO-101" value="" style="endArrow=none;html=1;rounded=0;exitX=1;exitY=0.5;exitDx=0;exitDy=0;entryX=0;entryY=0;entryDx=0;entryDy=0;" parent="1" source="CKRywCwi0RtDSJi-CvzO-100" target="CKRywCwi0RtDSJi-CvzO-99" edge="1">
          <mxGeometry width="50" height="50" relative="1" as="geometry">
            <mxPoint x="390" y="390" as="sourcePoint" />
            <mxPoint x="400" y="350" as="targetPoint" />
          </mxGeometry>
        </mxCell>
        <mxCell id="CKRywCwi0RtDSJi-CvzO-104" value="tecnicasDidacticas" style="rounded=0;whiteSpace=wrap;html=1;" parent="1" vertex="1">
          <mxGeometry x="695" y="560" width="120" height="60" as="geometry" />
        </mxCell>
        <mxCell id="qYpFcQ09hJOvXPzffIpI-1" value="glosarioTerminos" style="ellipse;whiteSpace=wrap;html=1;rotation=0;" parent="1" vertex="1">
          <mxGeometry x="540" y="240" width="110" height="20" as="geometry" />
        </mxCell>
        <mxCell id="qYpFcQ09hJOvXPzffIpI-2" value="referentesBibliograficos" style="ellipse;whiteSpace=wrap;html=1;rotation=0;" parent="1" vertex="1">
          <mxGeometry x="520" y="260" width="140" height="20" as="geometry" />
        </mxCell>
        <mxCell id="qYpFcQ09hJOvXPzffIpI-3" value="fechaCreacion" style="ellipse;whiteSpace=wrap;html=1;rotation=90;" parent="1" vertex="1">
          <mxGeometry x="455" y="95" width="90" height="20" as="geometry" />
        </mxCell>
        <mxCell id="qYpFcQ09hJOvXPzffIpI-4" value="fechaActualizacion" style="ellipse;whiteSpace=wrap;html=1;rotation=90;" parent="1" vertex="1">
          <mxGeometry x="465" y="85" width="110" height="20" as="geometry" />
        </mxCell>
        <mxCell id="qYpFcQ09hJOvXPzffIpI-5" value="" style="endArrow=none;html=1;rounded=0;exitX=0.492;exitY=0.041;exitDx=0;exitDy=0;exitPerimeter=0;entryX=0.5;entryY=1;entryDx=0;entryDy=0;" parent="1" target="CKRywCwi0RtDSJi-CvzO-47" edge="1">
          <mxGeometry width="50" height="50" relative="1" as="geometry">
            <mxPoint x="460" y="99.99999999999999" as="sourcePoint" />
            <mxPoint x="460" y="30" as="targetPoint" />
          </mxGeometry>
        </mxCell>
        <mxCell id="CKRywCwi0RtDSJi-CvzO-47" value="incluye" style="rhombus;whiteSpace=wrap;html=1;" parent="1" vertex="1">
          <mxGeometry x="435" y="85" width="50" height="40" as="geometry" />
        </mxCell>
        <mxCell id="qYpFcQ09hJOvXPzffIpI-7" value="" style="endArrow=none;html=1;rounded=0;entryX=1;entryY=0.5;entryDx=0;entryDy=0;exitX=0.75;exitY=0;exitDx=0;exitDy=0;" parent="1" source="CKRywCwi0RtDSJi-CvzO-33" target="qYpFcQ09hJOvXPzffIpI-3" edge="1">
          <mxGeometry width="50" height="50" relative="1" as="geometry">
            <mxPoint x="450" y="180" as="sourcePoint" />
            <mxPoint x="500" y="130" as="targetPoint" />
          </mxGeometry>
        </mxCell>
        <mxCell id="qYpFcQ09hJOvXPzffIpI-8" value="" style="endArrow=none;html=1;rounded=0;entryX=1;entryY=0.5;entryDx=0;entryDy=0;exitX=1;exitY=0;exitDx=0;exitDy=0;" parent="1" source="CKRywCwi0RtDSJi-CvzO-33" target="qYpFcQ09hJOvXPzffIpI-4" edge="1">
          <mxGeometry width="50" height="50" relative="1" as="geometry">
            <mxPoint x="500" y="181" as="sourcePoint" />
            <mxPoint x="510" y="160" as="targetPoint" />
          </mxGeometry>
        </mxCell>
        <mxCell id="qYpFcQ09hJOvXPzffIpI-9" value="" style="endArrow=none;html=1;rounded=0;entryX=0;entryY=0.5;entryDx=0;entryDy=0;exitX=1;exitY=1;exitDx=0;exitDy=0;" parent="1" source="CKRywCwi0RtDSJi-CvzO-33" target="qYpFcQ09hJOvXPzffIpI-1" edge="1">
          <mxGeometry width="50" height="50" relative="1" as="geometry">
            <mxPoint x="430" y="230" as="sourcePoint" />
            <mxPoint x="480" y="180" as="targetPoint" />
          </mxGeometry>
        </mxCell>
        <mxCell id="qYpFcQ09hJOvXPzffIpI-10" value="" style="endArrow=none;html=1;rounded=0;exitX=1;exitY=1;exitDx=0;exitDy=0;entryX=0;entryY=0.5;entryDx=0;entryDy=0;" parent="1" source="CKRywCwi0RtDSJi-CvzO-33" target="qYpFcQ09hJOvXPzffIpI-2" edge="1">
          <mxGeometry width="50" height="50" relative="1" as="geometry">
            <mxPoint x="530" y="365" as="sourcePoint" />
            <mxPoint x="540" y="300" as="targetPoint" />
          </mxGeometry>
        </mxCell>
        <mxCell id="qYpFcQ09hJOvXPzffIpI-11" value="razonCambio" style="ellipse;whiteSpace=wrap;html=1;rotation=90;" parent="1" vertex="1">
          <mxGeometry x="485" y="85" width="110" height="20" as="geometry" />
        </mxCell>
        <mxCell id="qYpFcQ09hJOvXPzffIpI-12" value="" style="endArrow=none;html=1;rounded=0;entryX=1;entryY=0.5;entryDx=0;entryDy=0;exitX=1;exitY=0;exitDx=0;exitDy=0;" parent="1" source="CKRywCwi0RtDSJi-CvzO-33" target="qYpFcQ09hJOvXPzffIpI-11" edge="1">
          <mxGeometry width="50" height="50" relative="1" as="geometry">
            <mxPoint x="530" y="181" as="sourcePoint" />
            <mxPoint x="530" y="160" as="targetPoint" />
          </mxGeometry>
        </mxCell>
        <mxCell id="qYpFcQ09hJOvXPzffIpI-13" value="nombre" style="ellipse;whiteSpace=wrap;html=1;rotation=0;" parent="1" vertex="1">
          <mxGeometry x="260" y="574.25" width="60" height="20" as="geometry" />
        </mxCell>
        <mxCell id="qYpFcQ09hJOvXPzffIpI-14" value="" style="endArrow=none;html=1;rounded=0;exitX=1;exitY=0.5;exitDx=0;exitDy=0;entryX=0;entryY=0.25;entryDx=0;entryDy=0;" parent="1" source="qYpFcQ09hJOvXPzffIpI-13" target="CKRywCwi0RtDSJi-CvzO-99" edge="1">
          <mxGeometry width="50" height="50" relative="1" as="geometry">
            <mxPoint x="380" y="390" as="sourcePoint" />
            <mxPoint x="410" y="390" as="targetPoint" />
          </mxGeometry>
        </mxCell>
        <mxCell id="qYpFcQ09hJOvXPzffIpI-16" value="incluye" style="rhombus;whiteSpace=wrap;html=1;" parent="1" vertex="1">
          <mxGeometry x="570" y="557.5" width="70" height="62.5" as="geometry" />
        </mxCell>
        <mxCell id="qYpFcQ09hJOvXPzffIpI-17" value="" style="endArrow=none;html=1;rounded=0;entryX=0;entryY=0.5;entryDx=0;entryDy=0;exitX=1;exitY=0.5;exitDx=0;exitDy=0;" parent="1" source="CKRywCwi0RtDSJi-CvzO-99" target="qYpFcQ09hJOvXPzffIpI-16" edge="1">
          <mxGeometry width="50" height="50" relative="1" as="geometry">
            <mxPoint x="490" y="220" as="sourcePoint" />
            <mxPoint x="540" y="170" as="targetPoint" />
          </mxGeometry>
        </mxCell>
        <mxCell id="qYpFcQ09hJOvXPzffIpI-19" value="N" style="edgeLabel;html=1;align=center;verticalAlign=middle;resizable=0;points=[];" parent="qYpFcQ09hJOvXPzffIpI-17" vertex="1" connectable="0">
          <mxGeometry x="-0.5497" relative="1" as="geometry">
            <mxPoint as="offset" />
          </mxGeometry>
        </mxCell>
        <mxCell id="qYpFcQ09hJOvXPzffIpI-18" value="" style="endArrow=none;html=1;rounded=0;entryX=0;entryY=0.5;entryDx=0;entryDy=0;exitX=1;exitY=0.5;exitDx=0;exitDy=0;" parent="1" source="qYpFcQ09hJOvXPzffIpI-16" target="CKRywCwi0RtDSJi-CvzO-104" edge="1">
          <mxGeometry width="50" height="50" relative="1" as="geometry">
            <mxPoint x="530" y="420" as="sourcePoint" />
            <mxPoint x="570" y="421" as="targetPoint" />
          </mxGeometry>
        </mxCell>
        <mxCell id="qYpFcQ09hJOvXPzffIpI-20" value="N" style="edgeLabel;html=1;align=center;verticalAlign=middle;resizable=0;points=[];" parent="qYpFcQ09hJOvXPzffIpI-18" vertex="1" connectable="0">
          <mxGeometry x="0.5444" relative="1" as="geometry">
            <mxPoint as="offset" />
          </mxGeometry>
        </mxCell>
        <mxCell id="qYpFcQ09hJOvXPzffIpI-22" value="&lt;u&gt;id&lt;/u&gt;" style="ellipse;whiteSpace=wrap;html=1;" parent="1" vertex="1">
          <mxGeometry x="875" y="558.75" width="60" height="20" as="geometry" />
        </mxCell>
        <mxCell id="qYpFcQ09hJOvXPzffIpI-23" value="nombre" style="ellipse;whiteSpace=wrap;html=1;rotation=0;" parent="1" vertex="1">
          <mxGeometry x="870" y="578.75" width="60" height="20" as="geometry" />
        </mxCell>
        <mxCell id="qYpFcQ09hJOvXPzffIpI-24" value="descripción" style="ellipse;whiteSpace=wrap;html=1;" parent="1" vertex="1">
          <mxGeometry x="865" y="600" width="70" height="20" as="geometry" />
        </mxCell>
        <mxCell id="qYpFcQ09hJOvXPzffIpI-25" value="" style="endArrow=none;html=1;rounded=0;entryX=0;entryY=0.5;entryDx=0;entryDy=0;exitX=1.005;exitY=0.167;exitDx=0;exitDy=0;exitPerimeter=0;" parent="1" source="CKRywCwi0RtDSJi-CvzO-104" target="qYpFcQ09hJOvXPzffIpI-22" edge="1">
          <mxGeometry width="50" height="50" relative="1" as="geometry">
            <mxPoint x="780" y="430" as="sourcePoint" />
            <mxPoint x="830" y="380" as="targetPoint" />
          </mxGeometry>
        </mxCell>
        <mxCell id="qYpFcQ09hJOvXPzffIpI-26" value="" style="endArrow=none;html=1;rounded=0;entryX=0;entryY=0.5;entryDx=0;entryDy=0;exitX=1;exitY=0.5;exitDx=0;exitDy=0;" parent="1" source="CKRywCwi0RtDSJi-CvzO-104" target="qYpFcQ09hJOvXPzffIpI-23" edge="1">
          <mxGeometry width="50" height="50" relative="1" as="geometry">
            <mxPoint x="801" y="400" as="sourcePoint" />
            <mxPoint x="820" y="400" as="targetPoint" />
          </mxGeometry>
        </mxCell>
        <mxCell id="qYpFcQ09hJOvXPzffIpI-27" value="" style="endArrow=none;html=1;rounded=0;entryX=0;entryY=0.5;entryDx=0;entryDy=0;exitX=1.002;exitY=0.838;exitDx=0;exitDy=0;exitPerimeter=0;" parent="1" source="CKRywCwi0RtDSJi-CvzO-104" target="qYpFcQ09hJOvXPzffIpI-24" edge="1">
          <mxGeometry width="50" height="50" relative="1" as="geometry">
            <mxPoint x="800" y="420" as="sourcePoint" />
            <mxPoint x="820" y="420" as="targetPoint" />
          </mxGeometry>
        </mxCell>
        <mxCell id="qYpFcQ09hJOvXPzffIpI-28" value="textoGenerado" style="ellipse;whiteSpace=wrap;html=1;rotation=0;" parent="1" vertex="1">
          <mxGeometry x="685" y="390" width="90" height="20" as="geometry" />
        </mxCell>
        <mxCell id="qYpFcQ09hJOvXPzffIpI-30" value="momentoGenerado" style="rounded=0;whiteSpace=wrap;html=1;" parent="1" vertex="1">
          <mxGeometry x="545" y="390" width="120" height="60" as="geometry" />
        </mxCell>
        <mxCell id="qYpFcQ09hJOvXPzffIpI-32" value="" style="endArrow=none;html=1;rounded=0;entryX=0;entryY=0.5;entryDx=0;entryDy=0;exitX=0.998;exitY=0.155;exitDx=0;exitDy=0;exitPerimeter=0;" parent="1" source="qYpFcQ09hJOvXPzffIpI-30" target="qYpFcQ09hJOvXPzffIpI-28" edge="1">
          <mxGeometry width="50" height="50" relative="1" as="geometry">
            <mxPoint x="540" y="310" as="sourcePoint" />
            <mxPoint x="590" y="260" as="targetPoint" />
          </mxGeometry>
        </mxCell>
        <mxCell id="qYpFcQ09hJOvXPzffIpI-34" value="incluye" style="rhombus;whiteSpace=wrap;html=1;" parent="1" vertex="1">
          <mxGeometry x="465" y="300" width="70" height="62.5" as="geometry" />
        </mxCell>
        <mxCell id="qYpFcQ09hJOvXPzffIpI-35" value="" style="endArrow=none;html=1;rounded=0;exitX=0.5;exitY=1;exitDx=0;exitDy=0;entryX=0.5;entryY=0;entryDx=0;entryDy=0;" parent="1" source="CKRywCwi0RtDSJi-CvzO-33" target="qYpFcQ09hJOvXPzffIpI-34" edge="1">
          <mxGeometry width="50" height="50" relative="1" as="geometry">
            <mxPoint x="730" y="430" as="sourcePoint" />
            <mxPoint x="780" y="380" as="targetPoint" />
          </mxGeometry>
        </mxCell>
        <mxCell id="qYpFcQ09hJOvXPzffIpI-38" value="1" style="edgeLabel;html=1;align=center;verticalAlign=middle;resizable=0;points=[];" parent="qYpFcQ09hJOvXPzffIpI-35" vertex="1" connectable="0">
          <mxGeometry x="-0.7011" relative="1" as="geometry">
            <mxPoint as="offset" />
          </mxGeometry>
        </mxCell>
        <mxCell id="qYpFcQ09hJOvXPzffIpI-37" value="" style="endArrow=none;html=1;rounded=0;exitX=0.5;exitY=1;exitDx=0;exitDy=0;entryX=0;entryY=0;entryDx=0;entryDy=0;" parent="1" source="qYpFcQ09hJOvXPzffIpI-34" target="qYpFcQ09hJOvXPzffIpI-30" edge="1">
          <mxGeometry width="50" height="50" relative="1" as="geometry">
            <mxPoint x="470" y="241" as="sourcePoint" />
            <mxPoint x="510" y="310" as="targetPoint" />
          </mxGeometry>
        </mxCell>
        <mxCell id="qYpFcQ09hJOvXPzffIpI-39" value="N" style="edgeLabel;html=1;align=center;verticalAlign=middle;resizable=0;points=[];" parent="qYpFcQ09hJOvXPzffIpI-37" vertex="1" connectable="0">
          <mxGeometry x="0.5863" y="1" relative="1" as="geometry">
            <mxPoint as="offset" />
          </mxGeometry>
        </mxCell>
        <mxCell id="qYpFcQ09hJOvXPzffIpI-40" value="incluye" style="rhombus;whiteSpace=wrap;html=1;" parent="1" vertex="1">
          <mxGeometry x="415" y="447.5" width="70" height="62.5" as="geometry" />
        </mxCell>
        <mxCell id="qYpFcQ09hJOvXPzffIpI-42" value="" style="endArrow=none;html=1;rounded=0;exitX=1;exitY=0;exitDx=0;exitDy=0;entryX=0;entryY=0.5;entryDx=0;entryDy=0;" parent="1" source="qYpFcQ09hJOvXPzffIpI-40" target="qYpFcQ09hJOvXPzffIpI-30" edge="1">
          <mxGeometry width="50" height="50" relative="1" as="geometry">
            <mxPoint x="730" y="430" as="sourcePoint" />
            <mxPoint x="780" y="380" as="targetPoint" />
          </mxGeometry>
        </mxCell>
        <mxCell id="qYpFcQ09hJOvXPzffIpI-45" value="N" style="edgeLabel;html=1;align=center;verticalAlign=middle;resizable=0;points=[];" parent="qYpFcQ09hJOvXPzffIpI-42" vertex="1" connectable="0">
          <mxGeometry x="0.6643" y="2" relative="1" as="geometry">
            <mxPoint as="offset" />
          </mxGeometry>
        </mxCell>
        <mxCell id="qYpFcQ09hJOvXPzffIpI-43" value="" style="endArrow=none;html=1;rounded=0;exitX=0.5;exitY=0;exitDx=0;exitDy=0;entryX=0.5;entryY=1;entryDx=0;entryDy=0;" parent="1" source="CKRywCwi0RtDSJi-CvzO-99" target="qYpFcQ09hJOvXPzffIpI-40" edge="1">
          <mxGeometry width="50" height="50" relative="1" as="geometry">
            <mxPoint x="477" y="473" as="sourcePoint" />
            <mxPoint x="555" y="430" as="targetPoint" />
          </mxGeometry>
        </mxCell>
        <mxCell id="qYpFcQ09hJOvXPzffIpI-44" value="1" style="edgeLabel;html=1;align=center;verticalAlign=middle;resizable=0;points=[];" parent="qYpFcQ09hJOvXPzffIpI-43" vertex="1" connectable="0">
          <mxGeometry x="-0.4857" relative="1" as="geometry">
            <mxPoint as="offset" />
          </mxGeometry>
        </mxCell>
        <mxCell id="qYpFcQ09hJOvXPzffIpI-46" value="incluye" style="rhombus;whiteSpace=wrap;html=1;" parent="1" vertex="1">
          <mxGeometry x="720" y="457.5" width="70" height="62.5" as="geometry" />
        </mxCell>
        <mxCell id="qYpFcQ09hJOvXPzffIpI-47" value="" style="endArrow=none;html=1;rounded=0;exitX=0;exitY=0;exitDx=0;exitDy=0;entryX=1;entryY=0.5;entryDx=0;entryDy=0;" parent="1" source="qYpFcQ09hJOvXPzffIpI-46" target="qYpFcQ09hJOvXPzffIpI-30" edge="1">
          <mxGeometry width="50" height="50" relative="1" as="geometry">
            <mxPoint x="477" y="473" as="sourcePoint" />
            <mxPoint x="555" y="430" as="targetPoint" />
          </mxGeometry>
        </mxCell>
        <mxCell id="qYpFcQ09hJOvXPzffIpI-48" value="N" style="edgeLabel;html=1;align=center;verticalAlign=middle;resizable=0;points=[];" parent="qYpFcQ09hJOvXPzffIpI-47" vertex="1" connectable="0">
          <mxGeometry x="0.6643" y="2" relative="1" as="geometry">
            <mxPoint as="offset" />
          </mxGeometry>
        </mxCell>
        <mxCell id="qYpFcQ09hJOvXPzffIpI-49" value="" style="endArrow=none;html=1;rounded=0;exitX=0.5;exitY=1;exitDx=0;exitDy=0;entryX=0.5;entryY=0;entryDx=0;entryDy=0;" parent="1" source="qYpFcQ09hJOvXPzffIpI-46" target="CKRywCwi0RtDSJi-CvzO-104" edge="1">
          <mxGeometry width="50" height="50" relative="1" as="geometry">
            <mxPoint x="747" y="483" as="sourcePoint" />
            <mxPoint x="675" y="430" as="targetPoint" />
          </mxGeometry>
        </mxCell>
        <mxCell id="qYpFcQ09hJOvXPzffIpI-50" value="N" style="edgeLabel;html=1;align=center;verticalAlign=middle;resizable=0;points=[];" parent="qYpFcQ09hJOvXPzffIpI-49" vertex="1" connectable="0">
          <mxGeometry x="0.6643" y="2" relative="1" as="geometry">
            <mxPoint as="offset" />
          </mxGeometry>
        </mxCell>
        <mxCell id="imQLWu5Btu9GugjrFtEy-1" value="" style="endArrow=none;html=1;rounded=0;entryX=1;entryY=0.5;entryDx=0;entryDy=0;exitX=0;exitY=0.25;exitDx=0;exitDy=0;" edge="1" parent="1" source="CKRywCwi0RtDSJi-CvzO-33" target="CKRywCwi0RtDSJi-CvzO-38">
          <mxGeometry width="50" height="50" relative="1" as="geometry">
            <mxPoint x="420" y="181" as="sourcePoint" />
            <mxPoint x="420" y="160" as="targetPoint" />
          </mxGeometry>
        </mxCell>
        <mxCell id="imQLWu5Btu9GugjrFtEy-3" value="" style="endArrow=none;html=1;rounded=0;exitX=0;exitY=0.75;exitDx=0;exitDy=0;entryX=1;entryY=0;entryDx=0;entryDy=0;" edge="1" parent="1" source="CKRywCwi0RtDSJi-CvzO-33" target="imQLWu5Btu9GugjrFtEy-7">
          <mxGeometry width="50" height="50" relative="1" as="geometry">
            <mxPoint x="240" y="210" as="sourcePoint" />
            <mxPoint x="342.5" y="295.625" as="targetPoint" />
          </mxGeometry>
        </mxCell>
        <mxCell id="imQLWu5Btu9GugjrFtEy-4" value="N" style="edgeLabel;html=1;align=center;verticalAlign=middle;resizable=0;points=[];" vertex="1" connectable="0" parent="imQLWu5Btu9GugjrFtEy-3">
          <mxGeometry x="-0.6111" relative="1" as="geometry">
            <mxPoint as="offset" />
          </mxGeometry>
        </mxCell>
        <mxCell id="imQLWu5Btu9GugjrFtEy-5" value="" style="endArrow=none;html=1;rounded=0;exitX=0;exitY=0.5;exitDx=0;exitDy=0;entryX=1;entryY=0.5;entryDx=0;entryDy=0;" edge="1" parent="1" source="imQLWu5Btu9GugjrFtEy-7" target="CKRywCwi0RtDSJi-CvzO-21">
          <mxGeometry width="50" height="50" relative="1" as="geometry">
            <mxPoint x="290" y="311.25" as="sourcePoint" />
            <mxPoint x="410" y="209.8" as="targetPoint" />
          </mxGeometry>
        </mxCell>
        <mxCell id="imQLWu5Btu9GugjrFtEy-6" value="1" style="edgeLabel;html=1;align=center;verticalAlign=middle;resizable=0;points=[];" vertex="1" connectable="0" parent="imQLWu5Btu9GugjrFtEy-5">
          <mxGeometry x="0.7222" relative="1" as="geometry">
            <mxPoint as="offset" />
          </mxGeometry>
        </mxCell>
        <mxCell id="imQLWu5Btu9GugjrFtEy-7" value="pertenece" style="rhombus;whiteSpace=wrap;html=1;" vertex="1" parent="1">
          <mxGeometry x="285" y="290" width="65" height="40" as="geometry" />
        </mxCell>
      </root>
    </mxGraphModel>
  </diagram>
</mxfile>
